# Blender v2.80 (sub 75) OBJ File: 'copinho.blend'
# www.blender.org
mtllib copinho.mtl
o glasscup
v 0.760860 0.007176 -0.439005
v 0.439489 0.007176 -0.760380
v 0.528283 1.776011 -0.915141
v 0.915064 1.776011 -0.528360
v 0.000484 0.007176 -0.878010
v -0.000075 1.776011 -1.056714
v -0.438521 0.007176 -0.760380
v -0.528428 1.776011 -0.915141
v -0.759897 0.007176 -0.439005
v -0.915213 1.776011 -0.528360
v -0.877527 0.007176 -0.000000
v -1.056786 1.776011 0.000000
v -0.759897 0.007176 0.439005
v -0.915213 1.776011 0.528357
v -0.438521 0.007176 0.760377
v -0.528428 1.776011 0.915138
v 0.000484 0.007175 0.878010
v -0.000075 1.776011 1.056711
v 0.439489 0.007176 0.760377
v 0.528283 1.776011 0.915138
v 0.760860 0.007176 0.439005
v 0.915064 1.776011 0.528357
v 0.878490 0.007176 -0.000000
v 1.056639 1.776011 0.000000
v 0.000484 0.007176 -0.000000
v 0.354147 0.411680 -0.204510
v 0.204436 0.411680 -0.354225
v -0.000075 0.330779 -0.000000
v -0.000075 0.411680 -0.409020
v -0.204585 0.411680 -0.354222
v -0.354297 0.411680 -0.204510
v -0.409094 0.411680 -0.000000
v -0.354297 0.411680 0.204510
v -0.204585 0.411680 0.354219
v -0.000075 0.411680 0.409020
v 0.204436 0.411680 0.354225
v 0.354147 0.411680 0.204510
v 0.408945 0.411680 -0.000000
v 0.452733 1.682610 -0.784287
v 0.784212 1.682610 -0.452807
v -0.000075 1.682610 -0.905613
v -0.452882 1.682610 -0.784287
v -0.784359 1.682610 -0.452807
v -0.905690 1.682610 0.000000
v -0.784359 1.682610 0.452808
v -0.452882 1.682610 0.784284
v -0.000075 1.682610 0.905613
v 0.452733 1.682610 0.784284
v 0.784212 1.682610 0.452808
v 0.905541 1.682610 0.000000
v 0.401869 0.789272 -0.696186
v 0.696108 0.789272 -0.401943
v -0.000075 0.789272 -0.803883
v -0.402014 0.789272 -0.696183
v -0.696257 0.789272 -0.401943
v -0.803957 0.789272 -0.000000
v -0.696257 0.789272 0.401940
v -0.402014 0.789272 0.696180
v -0.000075 0.789272 0.803883
v 0.401869 0.789272 0.696186
v 0.696108 0.789272 0.401940
v 0.803812 0.789272 -0.000000
v 0.552666 0.510144 -0.319122
v 0.319051 0.510144 -0.552741
v -0.000075 0.510144 -0.638250
v -0.319196 0.510144 -0.552741
v -0.552813 0.510144 -0.319122
v -0.638322 0.510143 -0.000000
v -0.552813 0.510143 0.319119
v -0.319196 0.510143 0.552735
v -0.000075 0.510143 0.638247
v 0.319051 0.510143 0.552741
v 0.552666 0.510143 0.319122
v 0.638176 0.510143 -0.000000
v 0.653040 0.631388 -0.377079
v 0.754081 0.631388 -0.000000
v 0.377005 0.631388 -0.653118
v -0.000075 0.631388 -0.754155
v -0.377150 0.631388 -0.653115
v -0.653189 0.631388 -0.377079
v -0.754230 0.631388 -0.000000
v -0.653189 0.631388 0.377076
v -0.377150 0.631388 0.653115
v -0.000075 0.631388 0.754155
v 0.377005 0.631388 0.653118
v 0.653040 0.631388 0.377076
v 0.541038 2.104723 -0.937235
v 0.447282 2.108079 -0.774846
v 0.525330 2.167972 -0.910026
v 0.506176 2.211415 -0.876849
v 0.484168 2.212202 -0.838731
v 0.464194 2.170161 -0.804136
v 0.774771 2.108078 -0.447356
v 0.937156 2.104724 -0.541117
v 0.804061 2.170160 -0.464267
v 0.838656 2.212202 -0.484241
v 0.876773 2.211414 -0.506250
v 0.909949 2.167973 -0.525406
v -0.000075 2.104724 -1.082226
v -0.000075 2.108079 -0.894711
v -0.000075 2.167973 -1.050807
v -0.000075 2.211415 -1.012497
v -0.000075 2.212203 -0.968481
v -0.000075 2.170161 -0.928533
v -0.541183 2.104723 -0.937235
v -0.447431 2.108078 -0.774846
v -0.525475 2.167972 -0.910026
v -0.506322 2.211414 -0.876849
v -0.484315 2.212202 -0.838731
v -0.464342 2.170160 -0.804135
v -0.937306 2.104725 -0.541117
v -0.774917 2.108078 -0.447357
v -0.910097 2.167974 -0.525406
v -0.876921 2.211415 -0.506250
v -0.838803 2.212202 -0.484241
v -0.804207 2.170160 -0.464267
v -1.082297 2.104724 0.000000
v -0.894788 2.108078 0.000000
v -1.050879 2.167973 0.000000
v -1.012571 2.211414 0.000000
v -0.968557 2.212202 0.000000
v -0.928609 2.170160 0.000000
v -0.937306 2.104724 0.541113
v -0.774917 2.108078 0.447357
v -0.910097 2.167973 0.525404
v -0.876921 2.211415 0.506249
v -0.838803 2.212202 0.484241
v -0.804207 2.170160 0.464268
v -0.541184 2.104722 0.937231
v -0.447432 2.108079 0.774843
v -0.525476 2.167971 0.910023
v -0.506322 2.211414 0.876848
v -0.484315 2.212202 0.838730
v -0.464342 2.170160 0.804134
v -0.000075 2.104723 1.082222
v -0.000075 2.108078 0.894711
v -0.000075 2.167972 1.050805
v -0.000075 2.211414 1.012496
v -0.000075 2.212202 0.968481
v -0.000075 2.170160 0.928533
v 0.541038 2.104722 0.937231
v 0.447282 2.108079 0.774843
v 0.525330 2.167971 0.910023
v 0.506176 2.211414 0.876848
v 0.484168 2.212202 0.838730
v 0.464194 2.170161 0.804134
v 0.937156 2.104723 0.541113
v 0.774771 2.108078 0.447357
v 0.909949 2.167972 0.525404
v 0.876773 2.211414 0.506249
v 0.838656 2.212202 0.484241
v 0.804061 2.170159 0.464267
v 1.082150 2.104724 0.000000
v 0.894639 2.108078 0.000000
v 1.050733 2.167973 0.000000
v 1.012424 2.211415 0.000000
v 0.968409 2.212202 0.000000
v 0.928461 2.170161 0.000000
vt 1.002154 1.885403
vt 1.213828 1.942121
vt 1.213828 1.947279
vt 0.999575 1.889870
vt 1.425502 1.885402
vt 1.428081 1.889870
vt 1.580458 1.730447
vt 1.584925 1.733026
vt 1.637176 1.518773
vt 1.642334 1.518773
vt 1.580458 1.307099
vt 1.584925 1.304520
vt 1.425502 1.152143
vt 1.428081 1.147676
vt 1.213828 1.095425
vt 1.213828 1.090267
vt 1.002154 1.152143
vt 0.999575 1.147676
vt 0.847199 1.307099
vt 0.842731 1.304520
vt 0.790480 1.518773
vt 0.785322 1.518773
vt 0.847198 1.730447
vt 0.842731 1.733026
vt 0.834154 1.737634
vt 0.994967 1.898447
vt 0.822819 1.742050
vt 0.990551 1.909782
vt 0.807217 1.753529
vt 0.979071 1.925384
vt 0.986843 1.907641
vt 1.215969 1.969035
vt 1.214126 1.957011
vt 0.994451 1.898149
vt 1.211687 1.969035
vt 1.440813 1.907641
vt 1.433205 1.898149
vt 1.213530 1.957011
vt 1.437105 1.909782
vt 1.604836 1.742050
vt 1.593502 1.737634
vt 1.432689 1.898447
vt 1.602695 1.745758
vt 1.664090 1.516632
vt 1.652066 1.518475
vt 1.593204 1.738150
vt 1.664090 1.520914
vt 1.602696 1.291788
vt 1.593204 1.299396
vt 1.652066 1.519071
vt 1.604837 1.295496
vt 1.437105 1.127764
vt 1.432689 1.139099
vt 1.593502 1.299912
vt 1.440813 1.129905
vt 1.211687 1.068511
vt 1.213530 1.080535
vt 1.433205 1.139397
vt 1.215969 1.068511
vt 0.986843 1.129905
vt 0.994451 1.139397
vt 1.214126 1.080535
vt 0.990551 1.127764
vt 0.822819 1.295496
vt 0.834154 1.299912
vt 0.994967 1.139099
vt 0.824960 1.291788
vt 0.763566 1.520914
vt 0.775590 1.519071
vt 0.834452 1.299396
vt 0.775590 1.518475
vt 0.834452 1.738150
vt 0.763566 1.516632
vt 0.824960 1.745758
vt 0.744315 1.518773
vt 2.402929 0.000000
vt 2.569596 0.000000
vt 2.569596 1.000000
vt 2.402930 1.000000
vt 2.736263 0.000000
vt 2.736263 1.000000
vt 0.736263 0.000000
vt 0.902929 0.000000
vt 0.902929 1.000000
vt 0.736263 1.000000
vt 1.069596 0.000000
vt 1.069595 1.000000
vt 1.236263 0.000000
vt 1.236263 1.000000
vt 1.402929 0.000000
vt 1.402929 1.000000
vt 1.569596 0.000000
vt 1.569596 1.000000
vt 1.736263 0.000000
vt 1.736263 1.000000
vt 1.902929 0.000000
vt 1.902929 1.000000
vt 2.069596 0.000000
vt 2.069596 1.000000
vt 2.236262 0.000000
vt 2.236262 1.000000
vt 0.442627 0.079998
vt 0.624931 0.262302
vt 0.193596 0.491410
vt 0.193596 0.013271
vt -0.055435 0.079998
vt -0.237738 0.262302
vt -0.304466 0.511333
vt -0.237738 0.760364
vt -0.055435 0.942668
vt 0.193596 1.009395
vt 0.442627 0.942668
vt 0.624931 0.760364
vt 0.691659 0.511333
vt 2.182251 2.703874
vt 2.275369 2.796994
vt 2.402569 2.576673
vt 2.402569 2.831076
vt 2.529771 2.796992
vt 2.622889 2.703874
vt 2.656973 2.576673
vt 2.622889 2.449472
vt 2.529771 2.356355
vt 2.402569 2.322270
vt 2.275369 2.356353
vt 2.182251 2.449472
vt 2.148168 2.576673
vt 1.646841 1.768774
vt 1.463828 1.951787
vt 1.469864 1.962241
vt 1.657295 1.774810
vt 1.713828 1.518773
vt 1.725899 1.518773
vt 0.963828 1.951787
vt 0.780815 1.768774
vt 0.770361 1.774810
vt 0.957792 1.962241
vt 0.713828 1.518773
vt 0.701757 1.518773
vt 0.780815 1.268773
vt 0.770361 1.262738
vt 0.963828 1.085760
vt 0.957792 1.075306
vt 1.213828 1.018773
vt 1.213828 1.006702
vt 1.463828 1.085760
vt 1.469863 1.075306
vt 1.646841 1.268773
vt 1.657295 1.262737
vt 1.213828 2.018773
vt 1.213828 2.030844
vt 1.545868 3.043079
vt 1.712535 3.043079
vt 1.712536 2.043079
vt 1.545869 2.043079
vt 1.879202 3.043079
vt 1.879202 2.043079
vt -0.120798 3.043079
vt 0.045869 3.043079
vt 0.045869 2.043079
vt -0.120798 2.043079
vt 0.212535 3.043079
vt 0.212536 2.043079
vt 0.379202 3.043079
vt 0.379202 2.043079
vt 0.545869 3.043079
vt 0.545868 2.043079
vt 0.712535 3.043079
vt 0.712535 2.043079
vt 0.879202 3.043079
vt 0.879202 2.043079
vt 1.045869 3.043079
vt 1.045869 2.043079
vt 1.212536 3.043079
vt 1.212536 2.043079
vt 1.379202 3.043079
vt 1.379202 2.043079
vt 2.058777 2.775162
vt 2.204081 2.920467
vt 2.402569 2.973652
vt 2.601058 2.920467
vt 2.746363 2.775161
vt 2.799547 2.576673
vt 2.746363 2.378187
vt 2.601058 2.232882
vt 2.402569 2.179695
vt 2.204081 2.232880
vt 2.058777 2.378185
vt 2.005592 2.576673
vt 1.969558 2.826673
vt 1.996345 2.811208
vt 1.933502 2.576673
vt 1.902570 2.576673
vt 2.168036 2.982901
vt 2.152570 3.009688
vt 2.402569 3.045742
vt 2.402569 3.076674
vt 2.637104 2.982899
vt 2.652569 3.009685
vt 2.808795 2.811208
vt 2.835583 2.826673
vt 2.871639 2.576673
vt 2.902570 2.576673
vt 2.808795 2.342140
vt 2.835583 2.326675
vt 2.637104 2.170449
vt 2.652569 2.143662
vt 2.402569 2.107604
vt 2.402569 2.076674
vt 2.168036 2.170447
vt 2.152570 2.143660
vt 1.996345 2.342139
vt 1.969558 2.326674
vt 1.459317 1.939618
vt 1.634672 1.764262
vt 1.645249 1.768205
vt 1.463259 1.950195
vt 1.214131 2.017110
vt 1.462734 1.950498
vt 1.216005 2.005978
vt 1.455545 1.941795
vt 1.216643 1.987532
vt 1.445769 1.926139
vt 0.964922 1.950498
vt 1.213525 2.017109
vt 0.972111 1.941795
vt 1.211650 2.005978
vt 0.981886 1.926138
vt 1.211013 1.987532
vt 0.782407 1.768205
vt 0.964397 1.950195
vt 0.792984 1.764262
vt 0.968339 1.939618
vt 0.809279 1.755590
vt 0.977010 1.923323
vt 0.715491 1.519076
vt 0.782104 1.767680
vt 0.726623 1.520950
vt 0.790807 1.760490
vt 0.745069 1.521588
vt 0.806464 1.750714
vt 0.782104 1.269867
vt 0.715491 1.518470
vt 0.790807 1.277056
vt 0.726623 1.516595
vt 0.806464 1.286831
vt 0.745069 1.515958
vt 0.964397 1.087352
vt 0.782407 1.269342
vt 0.968339 1.097929
vt 0.792984 1.273284
vt 0.977010 1.114224
vt 0.809279 1.281955
vt 1.213525 1.020436
vt 0.964922 1.087049
vt 1.211650 1.031567
vt 0.972111 1.095752
vt 1.211013 1.050014
vt 0.981886 1.111409
vt 1.462734 1.087049
vt 1.214131 1.020436
vt 1.455545 1.095752
vt 1.216006 1.031568
vt 1.445769 1.111408
vt 1.216643 1.050014
vt 1.645249 1.269342
vt 1.463259 1.087352
vt 1.634672 1.273284
vt 1.459317 1.097929
vt 1.618378 1.281955
vt 1.450646 1.114224
vt 1.712165 1.518470
vt 1.645552 1.269867
vt 1.701033 1.516595
vt 1.636850 1.277056
vt 1.682587 1.515958
vt 1.621193 1.286831
vt 1.636850 1.760490
vt 1.701033 1.520950
vt 1.712164 1.519076
vt 1.645552 1.767679
vn -0.2587 -0.0247 0.9656
vn 0.2587 -0.0247 0.9656
vn 0.7069 -0.0247 0.7069
vn 0.9656 -0.0247 0.2587
vn 0.9656 -0.0247 -0.2587
vn 0.7069 -0.0247 -0.7069
vn 0.2587 -0.0247 -0.9656
vn -0.2587 -0.0247 -0.9656
vn -0.7069 -0.0247 -0.7069
vn -0.9656 -0.0247 -0.2587
vn -0.9656 -0.0247 0.2587
vn -0.7069 -0.0247 0.7069
vn -0.6258 0.4657 0.6258
vn -0.5209 0.6762 0.5209
vn 0.0131 0.9998 -0.0131
vn -0.1907 0.6762 0.7116
vn -0.2290 0.4657 0.8548
vn 0.1907 0.6762 0.7116
vn 0.2290 0.4657 0.8548
vn 0.5210 0.6762 0.5209
vn 0.6258 0.4657 0.6258
vn 0.7116 0.6762 0.1907
vn 0.8548 0.4657 0.2290
vn 0.7116 0.6762 -0.1907
vn 0.8548 0.4657 -0.2290
vn 0.5209 0.6762 -0.5209
vn 0.6258 0.4657 -0.6258
vn 0.1907 0.6762 -0.7116
vn 0.2290 0.4657 -0.8548
vn -0.1907 0.6762 -0.7116
vn -0.2290 0.4657 -0.8548
vn -0.5209 0.6762 -0.5209
vn -0.6258 0.4657 -0.6258
vn -0.7116 0.6762 -0.1907
vn -0.8548 0.4657 -0.2290
vn -0.8548 0.4657 0.2290
vn -0.7116 0.6762 0.1907
vn 0.0179 0.9998 -0.0048
vn 0.8617 -0.1002 -0.4975
vn 0.4975 -0.1004 -0.8616
vn 0.4980 -0.0887 -0.8626
vn 0.8626 -0.0887 -0.4980
vn 0.0001 -0.1005 -0.9949
vn -0.0000 -0.0888 -0.9961
vn -0.4974 -0.1007 -0.8616
vn -0.4980 -0.0889 -0.8626
vn -0.8616 -0.1008 -0.4975
vn -0.8626 -0.0889 -0.4980
vn -0.9949 -0.1008 0.0000
vn -0.9960 -0.0889 0.0000
vn -0.8616 -0.1008 0.4975
vn -0.8626 -0.0889 0.4980
vn -0.4974 -0.1007 0.8616
vn -0.4980 -0.0889 0.8626
vn 0.0001 -0.1005 0.9949
vn -0.0000 -0.0888 0.9961
vn 0.4975 -0.1004 0.8616
vn 0.4980 -0.0887 0.8626
vn 0.8617 -0.1002 0.4975
vn 0.8626 -0.0887 0.4980
vn 0.9950 -0.1002 0.0000
vn 0.9961 -0.0886 0.0000
vn 0.0000 -1.0000 -0.0000
vn -0.2700 0.9502 0.1559
vn -0.1559 0.9502 0.2700
vn 0.0000 1.0000 0.0000
vn 0.0000 0.9502 0.3118
vn 0.1559 0.9502 0.2700
vn 0.2700 0.9502 0.1559
vn 0.3118 0.9502 -0.0000
vn 0.2700 0.9502 -0.1559
vn 0.1559 0.9502 -0.2700
vn 0.0000 0.9502 -0.3118
vn -0.1559 0.9502 -0.2700
vn -0.2700 0.9502 -0.1559
vn -0.3118 0.9502 0.0000
vn 0.4916 0.1829 -0.8514
vn 0.8514 0.1829 -0.4916
vn 0.9831 0.1829 0.0000
vn -0.8514 0.1829 -0.4916
vn -0.4916 0.1829 -0.8514
vn -0.9831 0.1829 0.0000
vn -0.8514 0.1829 0.4916
vn -0.4916 0.1829 0.8514
vn -0.0000 0.1829 0.9831
vn 0.4916 0.1829 0.8514
vn 0.8514 0.1829 0.4916
vn -0.0000 0.1829 -0.9831
vn -0.8605 0.1131 0.4968
vn -0.4968 0.1131 0.8605
vn -0.4894 0.2046 0.8477
vn -0.8477 0.2046 0.4894
vn 0.0000 0.1131 0.9936
vn 0.0000 0.2046 0.9788
vn 0.4968 0.1131 0.8605
vn 0.4894 0.2046 0.8477
vn 0.8605 0.1131 0.4968
vn 0.8477 0.2046 0.4894
vn 0.9936 0.1131 -0.0000
vn 0.9788 0.2046 -0.0000
vn 0.8605 0.1131 -0.4968
vn 0.8477 0.2046 -0.4894
vn 0.4968 0.1131 -0.8605
vn 0.4894 0.2046 -0.8477
vn 0.0000 0.1131 -0.9936
vn 0.0000 0.2046 -0.9788
vn -0.4968 0.1131 -0.8605
vn -0.4894 0.2046 -0.8477
vn -0.8605 0.1131 -0.4968
vn -0.8477 0.2046 -0.4894
vn -0.9936 0.1131 -0.0000
vn -0.9788 0.2046 -0.0000
vn -0.5125 0.8061 0.2959
vn -0.2959 0.8061 0.5125
vn 0.0000 0.8061 0.5918
vn 0.2959 0.8061 0.5125
vn 0.5125 0.8061 0.2959
vn 0.5918 0.8061 -0.0000
vn 0.5125 0.8061 -0.2959
vn 0.2959 0.8061 -0.5125
vn 0.0000 0.8061 -0.5918
vn -0.2959 0.8061 -0.5125
vn -0.5125 0.8061 -0.2959
vn -0.5918 0.8061 -0.0000
vn -0.7534 0.4932 0.4350
vn -0.8699 0.4932 -0.0000
vn -0.4350 0.4932 0.7534
vn 0.0000 0.4932 0.8699
vn 0.4350 0.4932 0.7534
vn 0.7534 0.4932 0.4350
vn 0.8699 0.4932 -0.0000
vn 0.7534 0.4932 -0.4350
vn 0.4350 0.4932 -0.7534
vn 0.0000 0.4932 -0.8699
vn -0.4350 0.4932 -0.7534
vn -0.7534 0.4932 -0.4349
vn 0.3750 0.6614 -0.6495
vn 0.6495 0.6614 -0.3750
vn 0.7243 0.5481 -0.4182
vn 0.4182 0.5481 -0.7243
vn -0.0000 0.5481 -0.8364
vn -0.0000 0.6614 -0.7500
vn 0.0048 0.9998 -0.0179
vn -0.0000 0.9998 -0.0179
vn -0.4182 0.5481 -0.7243
vn -0.3750 0.6614 -0.6495
vn -0.0089 0.9998 -0.0155
vn -0.7243 0.5481 -0.4182
vn -0.6495 0.6614 -0.3750
vn -0.0155 0.9998 -0.0089
vn -0.8364 0.5481 0.0000
vn -0.7500 0.6614 -0.0000
vn -0.0179 0.9998 0.0000
vn -0.7243 0.5481 0.4182
vn -0.6495 0.6614 0.3750
vn -0.0155 0.9998 0.0089
vn -0.4182 0.5481 0.7243
vn -0.3750 0.6614 0.6495
vn -0.0089 0.9998 0.0155
vn -0.0000 0.5481 0.8364
vn -0.0000 0.6614 0.7500
vn 0.0000 0.9998 0.0179
vn 0.4182 0.5481 0.7243
vn 0.3750 0.6614 0.6496
vn 0.0089 0.9998 0.0155
vn 0.7243 0.5481 0.4182
vn 0.6495 0.6614 0.3750
vn 0.0155 0.9998 0.0089
vn 0.8364 0.5481 0.0000
vn 0.7500 0.6614 -0.0000
vn 0.0179 0.9998 0.0048
usemtl initialShadingGroup
s off
f 88/1/1 100/2/1 41/3/1 39/4/1
f 100/2/2 106/5/2 42/6/2 41/3/2
f 106/5/3 112/7/3 43/8/3 42/6/3
f 112/7/4 118/9/4 44/10/4 43/8/4
f 118/9/5 124/11/5 45/12/5 44/10/5
f 124/11/6 130/13/6 46/14/6 45/12/6
f 130/13/7 136/15/7 47/16/7 46/14/7
f 136/15/8 142/17/8 48/18/8 47/16/8
f 142/17/9 148/19/9 49/20/9 48/18/9
f 148/19/10 154/21/10 50/22/10 49/20/10
f 154/21/11 93/23/11 40/24/11 50/22/11
f 93/23/12 88/1/12 39/4/12 40/24/12
f 88/1/13 93/23/13 95/25/13 92/26/13
f 92/26/14 95/25/14 96/27/14 91/28/14
f 91/28/15 96/27/15 97/29/15 90/30/15
f 91/31/16 103/32/16 104/33/16 92/34/16
f 92/34/17 104/33/17 100/2/17 88/1/17
f 103/35/18 109/36/18 110/37/18 104/38/18
f 104/38/19 110/37/19 106/5/19 100/2/19
f 109/39/20 115/40/20 116/41/20 110/42/20
f 110/42/21 116/41/21 112/7/21 106/5/21
f 115/43/22 121/44/22 122/45/22 116/46/22
f 116/46/23 122/45/23 118/9/23 112/7/23
f 121/47/24 127/48/24 128/49/24 122/50/24
f 122/50/25 128/49/25 124/11/25 118/9/25
f 127/51/26 133/52/26 134/53/26 128/54/26
f 128/54/27 134/53/27 130/13/27 124/11/27
f 133/55/28 139/56/28 140/57/28 134/58/28
f 134/58/29 140/57/29 136/15/29 130/13/29
f 139/59/30 145/60/30 146/61/30 140/62/30
f 140/62/31 146/61/31 142/17/31 136/15/31
f 145/63/32 151/64/32 152/65/32 146/66/32
f 146/66/33 152/65/33 148/19/33 142/17/33
f 151/67/34 157/68/34 158/69/34 152/70/34
f 152/70/35 158/69/35 154/21/35 148/19/35
f 93/23/36 154/21/36 158/71/36 95/72/36
f 95/72/37 158/71/37 157/73/37 96/74/37
f 96/74/38 157/73/38 156/75/38 97/29/38
s 1
f 1/76/39 2/77/40 3/78/41 4/79/42
f 2/77/40 5/80/43 6/81/44 3/78/41
f 5/82/43 7/83/45 8/84/46 6/85/44
f 7/83/45 9/86/47 10/87/48 8/84/46
f 9/86/47 11/88/49 12/89/50 10/87/48
f 11/88/49 13/90/51 14/91/52 12/89/50
f 13/90/51 15/92/53 16/93/54 14/91/52
f 15/92/53 17/94/55 18/95/56 16/93/54
f 17/94/55 19/96/57 20/97/58 18/95/56
f 19/96/57 21/98/59 22/99/60 20/97/58
f 21/98/59 23/100/61 24/101/62 22/99/60
f 23/100/61 1/76/39 4/79/42 24/101/62
f 2/102/63 1/103/63 25/104/63
f 5/105/63 2/102/63 25/104/63
f 7/106/63 5/105/63 25/104/63
f 9/107/63 7/106/63 25/104/63
f 11/108/63 9/107/63 25/104/63
f 13/109/63 11/108/63 25/104/63
f 15/110/63 13/109/63 25/104/63
f 17/111/63 15/110/63 25/104/63
f 19/112/63 17/111/63 25/104/63
f 21/113/63 19/112/63 25/104/63
f 23/114/63 21/113/63 25/104/63
f 1/103/63 23/114/63 25/104/63
f 26/115/64 27/116/65 28/117/66
f 27/116/65 29/118/67 28/117/66
f 29/118/67 30/119/68 28/117/66
f 30/119/68 31/120/69 28/117/66
f 31/120/69 32/121/70 28/117/66
f 32/121/70 33/122/71 28/117/66
f 33/122/71 34/123/72 28/117/66
f 34/123/72 35/124/73 28/117/66
f 35/124/73 36/125/74 28/117/66
f 36/125/74 37/126/75 28/117/66
f 37/126/75 38/127/76 28/117/66
f 38/127/76 26/115/64 28/117/66
f 4/128/42 3/129/41 87/130/77 94/131/78
f 24/132/62 4/128/42 94/131/78 153/133/79
f 8/134/46 10/135/48 111/136/80 105/137/81
f 10/135/48 12/138/50 117/139/82 111/136/80
f 12/138/50 14/140/52 123/141/83 117/139/82
f 14/140/52 16/142/54 129/143/84 123/141/83
f 16/142/54 18/144/56 135/145/85 129/143/84
f 18/144/56 20/146/58 141/147/86 135/145/85
f 20/146/58 22/148/60 147/149/87 141/147/86
f 22/148/60 24/132/62 153/133/79 147/149/87
f 6/150/44 8/134/46 105/137/81 99/151/88
f 40/152/89 39/153/90 51/154/91 52/155/92
f 39/153/90 41/156/93 53/157/94 51/154/91
f 41/158/93 42/159/95 54/160/96 53/161/94
f 42/159/95 43/162/97 55/163/98 54/160/96
f 43/162/97 44/164/99 56/165/100 55/163/98
f 44/164/99 45/166/101 57/167/102 56/165/100
f 45/166/101 46/168/103 58/169/104 57/167/102
f 46/168/103 47/170/105 59/171/106 58/169/104
f 47/170/105 48/172/107 60/173/108 59/171/106
f 48/172/107 49/174/109 61/175/110 60/173/108
f 49/174/109 50/176/111 62/177/112 61/175/110
f 50/176/111 40/152/89 52/155/92 62/177/112
f 63/178/113 64/179/114 27/116/65 26/115/64
f 64/179/114 65/180/115 29/118/67 27/116/65
f 65/180/115 66/181/116 30/119/68 29/118/67
f 66/181/116 67/182/117 31/120/69 30/119/68
f 67/182/117 68/183/118 32/121/70 31/120/69
f 68/183/118 69/184/119 33/122/71 32/121/70
f 69/184/119 70/185/120 34/123/72 33/122/71
f 70/185/120 71/186/121 35/124/73 34/123/72
f 71/186/121 72/187/122 36/125/74 35/124/73
f 72/187/122 73/188/123 37/126/75 36/125/74
f 73/188/123 74/189/124 38/127/76 37/126/75
f 74/189/124 63/178/113 26/115/64 38/127/76
f 52/190/92 75/191/125 76/192/126 62/193/112
f 75/191/125 63/178/113 74/189/124 76/192/126
f 63/178/113 75/191/125 77/194/127 64/179/114
f 75/191/125 52/190/92 51/195/91 77/194/127
f 64/179/114 77/194/127 78/196/128 65/180/115
f 77/194/127 51/195/91 53/197/94 78/196/128
f 65/180/115 78/196/128 79/198/129 66/181/116
f 78/196/128 53/197/94 54/199/96 79/198/129
f 66/181/116 79/198/129 80/200/130 67/182/117
f 79/198/129 54/199/96 55/201/98 80/200/130
f 67/182/117 80/200/130 81/202/131 68/183/118
f 80/200/130 55/201/98 56/203/100 81/202/131
f 68/183/118 81/202/131 82/204/132 69/184/119
f 81/202/131 56/203/100 57/205/102 82/204/132
f 69/184/119 82/204/132 83/206/133 70/185/120
f 82/204/132 57/205/102 58/207/104 83/206/133
f 70/185/120 83/206/133 84/208/134 71/186/121
f 83/206/133 58/207/104 59/209/106 84/208/134
f 71/186/121 84/208/134 85/210/135 72/187/122
f 84/208/134 59/209/106 60/211/108 85/210/135
f 72/187/122 85/210/135 86/212/136 73/188/123
f 85/210/135 60/211/108 61/213/110 86/212/136
f 73/188/123 86/212/136 76/192/126 74/189/124
f 86/212/136 61/213/110 62/193/112 76/192/126
f 90/214/137 97/215/138 98/216/139 89/217/140
f 89/217/140 98/216/139 94/131/78 87/130/77
f 87/130/77 99/151/88 101/218/141 89/219/140
f 89/219/140 101/218/141 102/220/142 90/221/137
f 90/221/143 102/220/144 103/222/144 91/223/143
f 99/151/88 105/137/81 107/224/145 101/225/141
f 101/225/141 107/224/145 108/226/146 102/227/142
f 102/227/144 108/226/147 109/228/147 103/229/144
f 105/137/81 111/136/80 113/230/148 107/231/145
f 107/231/145 113/230/148 114/232/149 108/233/146
f 108/233/147 114/232/150 115/234/150 109/235/147
f 111/136/80 117/139/82 119/236/151 113/237/148
f 113/237/148 119/236/151 120/238/152 114/239/149
f 114/239/150 120/238/153 121/240/153 115/241/150
f 117/139/82 123/141/83 125/242/154 119/243/151
f 119/243/151 125/242/154 126/244/155 120/245/152
f 120/245/153 126/244/156 127/246/156 121/247/153
f 123/141/83 129/143/84 131/248/157 125/249/154
f 125/249/154 131/248/157 132/250/158 126/251/155
f 126/251/156 132/250/159 133/252/159 127/253/156
f 129/143/84 135/145/85 137/254/160 131/255/157
f 131/255/157 137/254/160 138/256/161 132/257/158
f 132/257/159 138/256/162 139/258/162 133/259/159
f 135/145/85 141/147/86 143/260/163 137/261/160
f 137/261/160 143/260/163 144/262/164 138/263/161
f 138/263/162 144/262/165 145/264/165 139/265/162
f 141/147/86 147/149/87 149/266/166 143/267/163
f 143/267/163 149/266/166 150/268/167 144/269/164
f 144/269/165 150/268/168 151/270/168 145/271/165
f 147/149/87 153/133/79 155/272/169 149/273/166
f 149/273/166 155/272/169 156/274/170 150/275/167
f 150/275/168 156/274/171 157/276/171 151/277/168
f 97/278/138 156/279/170 155/280/169 98/281/139
f 98/281/139 155/280/169 153/133/79 94/131/78
f 3/129/41 6/150/44 99/151/88 87/130/77
